<?xml version="1.0" encoding="UTF-8" standalone="no"?>
<svg
   xmlns:dc="http://purl.org/dc/elements/1.1/"
   xmlns:cc="http://creativecommons.org/ns#"
   xmlns:rdf="http://www.w3.org/1999/02/22-rdf-syntax-ns#"
   xmlns:svg="http://www.w3.org/2000/svg"
   xmlns="http://www.w3.org/2000/svg"
   xmlns:sodipodi="http://sodipodi.sourceforge.net/DTD/sodipodi-0.dtd"
   xmlns:inkscape="http://www.inkscape.org/namespaces/inkscape"
   id="svg3907"
   version="1.1"
   height="24px"
   width="24px"
   viewBox="0 0 24 24"
   fill="#000000"
   sodipodi:docname="icons8-heart-inactive.svg"
   inkscape:version="0.92.5 (2060ec1f9f, 2020-04-08)">
  <sodipodi:namedview
     pagecolor="#ffffff"
     bordercolor="#666666"
     borderopacity="1"
     objecttolerance="10"
     gridtolerance="10"
     guidetolerance="10"
     inkscape:pageopacity="0"
     inkscape:pageshadow="2"
     inkscape:window-width="1862"
     inkscape:window-height="1016"
     id="namedview14"
     showgrid="false"
     inkscape:zoom="34.916667"
     inkscape:cx="12"
     inkscape:cy="12"
     inkscape:window-x="58"
     inkscape:window-y="27"
     inkscape:window-maximized="1"
     inkscape:current-layer="svg3907" />
  <metadata
     id="metadata3913">
    <rdf:RDF>
      <cc:Work
         rdf:about="">
        <dc:format>image/svg+xml</dc:format>
        <dc:type
           rdf:resource="http://purl.org/dc/dcmitype/StillImage" />
        <dc:title />
      </cc:Work>
    </rdf:RDF>
  </metadata>
  <defs
     id="defs3911" />
  <path
     style="fill:#b3b3b3"
     id="path3905"
     d="M16.5,3C13.605,3,12,5.09,12,5.09S10.395,3,7.5,3C4.462,3,2,5.462,2,8.5c0,4.171,4.912,8.213,6.281,9.49C9.858,19.46,12,21.35,12,21.35s2.142-1.89,3.719-3.36C17.088,16.713,22,12.671,22,8.5C22,5.462,19.538,3,16.5,3z M14.811,16.11c-0.177,0.16-0.331,0.299-0.456,0.416c-0.751,0.7-1.639,1.503-2.355,2.145c-0.716-0.642-1.605-1.446-2.355-2.145c-0.126-0.117-0.28-0.257-0.456-0.416C7.769,14.827,4,11.419,4,8.5C4,6.57,5.57,5,7.5,5c1.827,0,2.886,1.275,2.914,1.308L12,8l1.586-1.692C13.596,6.295,14.673,5,16.5,5C18.43,5,20,6.57,20,8.5C20,11.419,16.231,14.827,14.811,16.11z" />
</svg>
