<?xml version="1.0" encoding="UTF-8" standalone="no"?>
<svg
   xmlns:dc="http://purl.org/dc/elements/1.1/"
   xmlns:cc="http://creativecommons.org/ns#"
   xmlns:rdf="http://www.w3.org/1999/02/22-rdf-syntax-ns#"
   xmlns:svg="http://www.w3.org/2000/svg"
   xmlns="http://www.w3.org/2000/svg"
   id="svg8"
   version="1.1"
   viewBox="0 0 24.077141 23.079647"
   height="23.079647mm"
   width="24.077141mm">
  <defs
     id="defs2" />
  <metadata
     id="metadata5">
    <rdf:RDF>
      <cc:Work
         rdf:about="">
        <dc:format>image/svg+xml</dc:format>
        <dc:type
           rdf:resource="http://purl.org/dc/dcmitype/StillImage" />
        <dc:title></dc:title>
      </cc:Work>
    </rdf:RDF>
  </metadata>
  <g
     transform="translate(-54.089516,-59.103864)"
     id="layer1">
    <path
       style="fill:#040404;stroke-width:0.26458332"
       d="m 71.211133,81.916229 c -2.149433,-0.65786 -3.722639,-3.34695 -3.387698,-5.79062 0.876065,-6.39159 10.343221,-5.67561 10.343221,0.78223 0,3.68907 -3.360362,6.10873 -6.955523,5.00839 z m 2.854482,-2.89172 c 0,-1.05833 0,-1.05833 1.058333,-1.05833 1.058333,0 1.058333,0 1.058333,-1.05834 0,-1.05833 0,-1.05833 -1.058333,-1.05833 -1.058333,0 -1.058333,0 -1.058333,-1.05833 0,-1.05834 0,-1.05834 -1.058334,-1.05834 -1.058333,0 -1.058333,0 -1.058333,1.05834 0,1.05833 0,1.05833 -1.058333,1.05833 -1.058334,0 -1.058334,0 -1.058334,1.05833 0,1.05834 0,1.05834 1.058334,1.05834 1.058333,0 1.058333,0 1.058333,1.05833 0,1.05833 0,1.05833 1.058333,1.05833 1.058334,0 1.058334,0 1.058334,-1.05833 z M 57.41282,78.511299 c -0.530256,-0.53026 -0.876535,-1.57768 -2.558475,-7.73883 -1.244783,-4.559798 -1.305001,-4.447961 2.394992,-4.447961 2.698096,0 2.698096,0 5.2804,-3.7198 3.248473,-4.679412 2.954414,-4.68327 6.233972,0.08178 2.503878,3.638021 2.503878,3.638021 5.193411,3.638021 3.313454,0 3.472386,0.119271 2.995931,2.248297 -0.392104,1.752103 -0.443419,1.798043 -1.544173,1.382563 -0.678244,-0.25601 -0.827806,-0.44226 -0.736921,-0.9177 0.114027,-0.596493 0.114027,-0.596493 -9.071081,-0.596493 -9.185108,0 -9.185108,0 -8.293588,3.241143 0.490335,1.78263 1.013328,3.68763 1.162204,4.23333 0.270686,0.99219 0.270686,0.99219 3.700071,0.99219 3.088316,0 3.429744,0.0461 3.432998,0.46302 0.002,0.25466 0.0754,0.73091 0.16315,1.05834 0.23154,0.86399 -7.495057,0.93993 -8.352891,0.0821 z M 68.509365,66.172157 c 0,-0.261331 -2.73317,-4.080982 -2.920167,-4.080982 -0.151301,0 -2.601392,3.460747 -2.856569,4.034895 -0.04851,0.109141 1.231414,0.198438 2.84427,0.198438 1.612856,0 2.932466,-0.06856 2.932466,-0.152351 z"
       id="path58" />
  </g>
</svg>
