<svg id="Layer_1" data-name="Layer 1" xmlns="http://www.w3.org/2000/svg" viewBox="0 0 98.02 40.74"><defs><style>.cls-1{fill:#675f5d;}</style></defs><title>skoutwear_logo</title><path class="cls-1" d="M21.56,40.35c-1.08-4.2-2.88-7.62-8.34-7.62-4.5,0-6.54,3.36-6.54,6.9,0,4.62,2.58,6.48,7.26,9.24s9.84,5.7,9.84,12.18c0,6.3-5.28,11.16-12.3,11.16A24.61,24.61,0,0,1,3,70.47c-.36-1.62-1.26-6.9-1.38-8l.84-.18c1,3.66,3.72,8.7,9.9,8.7,5.1,0,7.26-4,7.26-8,0-4.62-3.12-7.14-7.32-9.72-4.5-2.76-9.42-5.64-9.42-11.7,0-5.64,4.62-10,11.4-10a31.13,31.13,0,0,1,7.26,1c.24,2.1.54,4.92,1,7.74Z" transform="translate(-1.58 -31.47)"/><path class="cls-1" d="M28.52,32.31H43.28V33c-5,.9-5.28,1.26-5.28,6.84V50.79a12.11,12.11,0,0,0,3.48-2.46c3.24-3,8.58-8.52,11.28-11.46,2.1-2.4,1.56-3.06-1-3.6L50.36,33v-.72h13V33c-4.38.54-5.46,1.26-9.42,5l-11.7,11.4C47.06,54.87,54.14,62.79,57,65.67c3.84,3.9,4.44,4.38,8.34,4.91v.73H56.18c-5.4-5.88-11.16-12.42-16-17.82a7.38,7.38,0,0,0-2.22-2v12c0,6.06.48,6.06,5.28,7.07v.73H28.52v-.73c4.86-.77,5.22-1,5.22-7.07V40c0-5.88-.36-6.24-5.22-7Z" transform="translate(-1.58 -31.47)"/><path class="cls-1" d="M59.81,38.25a5.43,5.43,0,0,1,5.37,5.61c0,3.56-2.47,5.93-5.51,5.93a5.46,5.46,0,0,1-5.39-5.61C54.28,41.1,56.39,38.25,59.81,38.25Zm-.33.37c-2,0-3.74,1.77-3.74,5.07S57.48,49.4,60,49.4c2,0,3.67-1.74,3.67-5C63.71,40.71,61.93,38.62,59.48,38.62Z" transform="translate(-1.58 -31.47)"/><path class="cls-1" d="M77.55,38.69c-1.2.2-1.27.47-1.32,1.36,0,.41-.07,1-.07,2.5v2.27c0,1.59-.17,2.91-1.16,3.91a4,4,0,0,1-3,1.06A4.5,4.5,0,0,1,69.34,49c-1.09-.86-1.41-1.94-1.41-3.92V40.51c0-1.48-.1-1.6-1.36-1.82v-.21H70.5v.21c-1.26.24-1.38.34-1.38,1.82v4.38c0,2.62.95,4.2,3.42,4.2,2.65,0,3.09-1.68,3.09-4.27V42.53c0-1.53,0-2,0-2.53,0-.87-.19-1.14-1.58-1.31v-.21h3.55Z" transform="translate(-1.58 -31.47)"/><path class="cls-1" d="M87.92,40.88a7,7,0,0,0-.32-1c-.29-.68-.54-1-1.56-1H83.91v8.73c0,1.28.12,1.46,1.62,1.67v.2H81.14v-.2c1.5-.24,1.56-.41,1.56-1.67V38.93H80.55c-1,0-1.11.3-1.35.74a7.71,7.71,0,0,0-.44,1.21h-.27c.12-.92.2-1.84.25-2.69h.17c.21.26.31.29.92.29H87c.49,0,.65,0,.8-.29H88c0,.7.07,1.7.16,2.64Z" transform="translate(-1.58 -31.47)"/><path class="cls-1" d="M69.26,52.91c-1.19.19-1.36.37-1.84,1.85S65.14,61.88,64.51,64h-.23c-.92-2.81-2.72-7.84-3.11-8.94-.91,2.68-2.16,6.41-3,8.94h-.26C57,60.92,56,57.77,55.1,54.68c-.43-1.41-.56-1.6-1.74-1.77v-.2h3.85v.2c-1.18.2-1.23.41-1,1.36.7,2.41,1.45,4.91,2.23,7.41.92-2.72,2.11-6.36,2.94-8.8h.24c1,2.9,2.05,5.88,3.09,8.77.8-2.57,1.82-6,2.16-7.25.27-1,.22-1.29-1.27-1.49v-.2h3.62Z" transform="translate(-1.58 -31.47)"/><path class="cls-1" d="M77.86,61.34c-.09.56-.39,1.9-.53,2.41H69.62v-.2c1.49-.2,1.59-.32,1.59-1.72v-7.1c0-1.46,0-1.57-1.37-1.82v-.2h4.81c1.46,0,2,0,2.29,0,0,.6.07,1.82.12,2.31l-.24,0a6.13,6.13,0,0,0-.53-1.35c-.32-.47-.52-.51-1.52-.51H72.91c-.46,0-.49.05-.49.53v3.94h2.11c1.15,0,1.31-.22,1.51-1.36h.22v3.2H76c-.29-1.19-.41-1.36-1.48-1.36H72.42v4c0,1.14.46,1.17,1.41,1.17h1.68a1.38,1.38,0,0,0,1.48-.8,6.74,6.74,0,0,0,.65-1.22Z" transform="translate(-1.58 -31.47)"/><path class="cls-1" d="M85.42,63.75v-.2c.94-.17,1.19-.31,1-.92s-.65-2-1.16-3.38H81.84c-.38,1.09-.7,2-1,2.77-.38,1.16-.12,1.27,1.17,1.53v.2H78.51v-.2c.95-.17,1.24-.29,1.87-1.89l3.53-9.16.24,0c1,3.09,2.16,6.2,3.3,9.36.52,1.48.73,1.48,1.8,1.72v.2Zm-1.83-9.33c-.55,1.45-1,2.93-1.58,4.34H85.1Z" transform="translate(-1.58 -31.47)"/><path class="cls-1" d="M99.55,63.84c-.13,0-.54,0-.66,0-1.43-.08-1.77-.25-2.45-1.17s-1.38-2.14-2-3.16c-.44-.75-.63-.85-1.5-.85h-.71v3.23c0,1.31.13,1.49,1.49,1.68v.2H89.57v-.2c1.33-.2,1.48-.34,1.48-1.68V54.56c0-1.31-.12-1.45-1.48-1.65v-.2h4.07a4.63,4.63,0,0,1,2.68.62,2.5,2.5,0,0,1,1,2.09,3.2,3.2,0,0,1-2.18,2.91c.33.58,1.11,1.87,1.62,2.64a16.34,16.34,0,0,0,1.41,2,2,2,0,0,0,1.39.71ZM93.3,58.3a2.8,2.8,0,0,0,1.8-.38,2.37,2.37,0,0,0,.9-2.19C96,53.88,95,53,93.53,53a2.2,2.2,0,0,0-1.07.16c-.15.1-.2.25-.2.8v4.3Z" transform="translate(-1.58 -31.47)"/></svg>